<svg
    xmlns="http://www.w3.org/2000/svg"
    viewBox="0 0 300 420"
    width="300"
    height="420"
>
    <!-- Σκιά -->
    <path
        d="M30 20 h180 l60 60 v300 a10 10 0 0 1 -10 10 h-230 a10 10 0 0 1 -10 -10 v-350 a10 10 0 0 1 10 -10 z"
        fill="rgba(0,0,0,0.08)"
    />

    <!-- Σελίδα -->
    <path
        d="M20 10 h180 l60 60 v300 a10 10 0 0 1 -10 10 h-230 a10 10 0 0 1 -10 -10 v-350 a10 10 0 0 1 10 -10 z"
        fill="#ffffff"
        stroke="#555"
        stroke-width="2"
    />

    <!-- Γυρισμένη γωνία -->
    <path
        d="M200 10 v60 h60 z"
        fill="#f0f0f0"
        stroke="#555"
        stroke-width="2"
    />

    <!-- Εσωτερική σκίαση γωνίας -->
    <path
        d="M200 10 v50 h50 z"
        fill="#e0e0e0"
    />
</svg>
